<svg width="256" height="256" viewBox="0 0 256 256" fill="none" xmlns="http://www.w3.org/2000/svg">
<rect width="256" height="256" fill="url(#paint0_linear_1_2)"/>
<path d="M68.9915 121.117C68.9915 94.5087 126.909 62.9483 163.087 36.7888L189.131 88.1548C151.284 103.183 95.7076 114.994 102.943 126.126C110.179 137.258 177.526 148.946 160.828 173.436C144.13 197.925 27.8042 221.858 27.8042 221.858C27.8042 221.858 155.262 180.115 147.47 167.313C139.678 154.512 68.9915 147.724 68.9915 121.117Z" fill="url(#paint1_linear_1_2)"/>
<g filter="url(#filter0_i_1_2)">
<circle cx="178.904" cy="61.129" r="26.9874" fill="#FFE600"/>
</g>
<circle cx="178.904" cy="61.129" r="26.9874" stroke="url(#paint2_linear_1_2)" stroke-width="4"/>
<defs>
<filter id="filter0_i_1_2" x="149.917" y="32.1416" width="57.9748" height="57.9749" filterUnits="userSpaceOnUse" color-interpolation-filters="sRGB">
<feFlood flood-opacity="0" result="BackgroundImageFix"/>
<feBlend mode="normal" in="SourceGraphic" in2="BackgroundImageFix" result="shape"/>
<feColorMatrix in="SourceAlpha" type="matrix" values="0 0 0 0 0 0 0 0 0 0 0 0 0 0 0 0 0 0 127 0" result="hardAlpha"/>
<feOffset dx="8" dy="-8"/>
<feComposite in2="hardAlpha" operator="arithmetic" k2="-1" k3="1"/>
<feColorMatrix type="matrix" values="0 0 0 0 1 0 0 0 0 0.776 0 0 0 0 0.2 0 0 0 1 0"/>
<feBlend mode="normal" in2="shape" result="effect1_innerShadow_1_2"/>
</filter>
<linearGradient id="paint0_linear_1_2" x1="71.1884" y1="-4.85922e-07" x2="156.229" y2="253.471" gradientUnits="userSpaceOnUse">
<stop stop-color="#3C5BFF"/>
<stop offset="1" stop-color="#92D8FF"/>
</linearGradient>
<linearGradient id="paint1_linear_1_2" x1="187.544" y1="38.1853" x2="92.2113" y2="233.35" gradientUnits="userSpaceOnUse">
<stop stop-color="white"/>
<stop offset="1" stop-color="white" stop-opacity="0.09"/>
</linearGradient>
<linearGradient id="paint2_linear_1_2" x1="169.473" y1="34.1416" x2="192.064" y2="88.1164" gradientUnits="userSpaceOnUse">
<stop stop-color="#5179FF"/>
<stop offset="1" stop-color="#6394FF"/>
</linearGradient>
</defs>
</svg>
